<svg enable-background="new 0 0 690 32" viewBox="0 0 690 32" xmlns="http://www.w3.org/2000/svg"><g fill="#333"><path d="m200.6 11.6h5v16.2h-5z"/><path d="m219.4 11.3c-2.9 0-4.7 1.6-5 2.8v-2.6h-5.7v16.2h5.7v-8.8c0-.4 0-.9.2-1.3.5-1.1 1.6-1.9 2.8-1.9 1.9 0 2.9 1.5 2.9 3.7v8.4h5.7v-9.2c-.1-5-3.1-7.3-6.6-7.3z"/><path d="m203 4.2c-1.5-.2-2.9.9-3.1 2.5v.3c.3 1.7 1.9 2.8 3.6 2.5 1.3-.2 2.3-1.2 2.5-2.5.1-1.7-1-2.8-3-2.8z"/><path d="m69.9 5.7c-1 .7-2.2 1.1-3.4 1.3-1-1-2.4-1.6-3.9-1.6-2.9 0-5.3 2.4-5.4 5.3 0 .4.1.8.2 1.1-4.3-.1-8.3-2.1-11-5.5-.4.9-.6 1.8-.6 2.8 0 1.8.9 3.4 2.4 4.4-.8 0-1.7-.2-2.4-.6 0 2.5 1.7 4.7 4.2 5.2-.5.2-1 .2-1.5.2l-1-.2c.7 2.2 2.7 3.6 5 3.7-1.9 1.5-4.2 2.3-6.6 2.3h-1.3c2.4 1.6 5.2 2.5 8.1 2.4 9.9 0 15.2-8.3 15.2-15.2v-.8c1.1-.8 2-1.7 2.8-2.8-1 .4-2 .6-3.1.8 1.1-.6 1.9-1.6 2.3-2.8z"/><path d="m9.7 7.3c.7 0 1.4.1 2.1.3l.6-4c-1.6-.4-3.2-.6-4.9-.5-1.6-.1-3.2.7-4.1 2-.8 1.1-.8 2.9-.8 4v2.6h-2.8v3.9h2.8v13.4h5v-13.4h4l.3-3.7h-4.2v-3.1c0-1.1 1-1.5 2-1.5z"/><path d="m103.7 14.7v3.4h5.6c-.5 2.6-2.9 4.4-5.6 4.2-3.4 0-6.2-2.8-6.2-6.2s2.8-6.2 6.2-6.2c1.4 0 2.8.5 3.9 1.5l2.7-2.6c-1.8-1.7-4.1-2.6-6.6-2.6-5.4 0-9.8 4.4-9.8 9.8s4.4 9.8 9.8 9.8c5.7 0 9.4-4 9.4-9.6 0-.5-.1-1.1-.2-1.6h-9.2z"/><path d="m121.9 11.9h-2.8v2.8h-2.8v2.8h2.8v2.8h2.8v-2.8h2.8v-2.8h-2.8z"/><path d="m169.2 20.6c0-.3-.2-.5-.5-.5-.2-.1-.4.1-.5.3v.2 1.1h1z"/><path d="m169 15.4h-15.7c-2.3 0-4.2 1.9-4.2 4.2v3.7c0 2.3 1.9 4.2 4.2 4.2h15.7c2.3 0 4.2-1.9 4.2-4.2v-3.7c0-2.3-1.8-4.2-4.2-4.2zm-13.3 2.7h-1.4v7.6h-1.5v-7.6h-1.5v-1.1h4.4zm4.1 7.6h-1.3v-.6c-.3.4-.8.6-1.3.7-.3 0-.7-.1-.9-.4s-.3-.7-.2-1.1v-5.1h1.4v5.1c0 .3.1.5.4.5l.6-.3v-5.3h1.4zm5.4-1.4c.1.4 0 .8-.2 1.1s-.6.4-.9.4c-.5-.1-1-.3-1.3-.7v.6h-1.4v-8.7h1.4v2.8c.4-.4.9-.7 1.4-.7.3 0 .6.2.8.4.2.4.3.8.2 1.2zm3.4 1.5c-.9.1-1.8-.6-1.9-1.5 0-.1 0-.2 0-.3v-3c0-1.2.7-1.8 2-1.8.9-.2 1.7.4 1.9 1.3v.3 1.9h-2.5v1.4c0 .5.1.7.5.7l.4-.2c.1-.2.1-.5.1-.7v-.5h1.4v.2.4c.1.9-.6 1.7-1.6 1.8 0 0-.1 0-.3 0z"/><path d="m163.4 20.2-.6.3v4l.6.3c.3 0 .4-.2.4-.5v-3.6c0-.4-.1-.5-.4-.5z"/><path d="m155 14.1h1.7v-4l1.8-5.6h-1.7l-.3.9-.2.7-.1.7-.2.7-.1.6h-.1l-.1-.6-.2-.7-.1-.7-.2-.7-.3-.9h-1.8l1.9 5.6z"/><path d="m160.8 14.2c1 .2 1.9-.5 2.1-1.5 0-.2 0-.4 0-.5v-3.3c0-1.2-1-2.2-2.1-2.2-1.2 0-2.2 1-2.2 2.2v3.3c-.1 1 .5 1.9 1.5 2 .3.1.5.1.7 0zm-.6-5.5c-.1-.3.2-.6.5-.7h.1c.3 0 .6.3.6.6v.1 3.7c.1.3 0 .7-.3.8s-.7 0-.8-.3c-.1-.2-.1-.3 0-.5v-3.7z"/><path d="m165.7 14.2c.6 0 1.1-.3 1.5-.7v.6h1.4v-7.1h-1.6v5.8l-.7.3c-.3 0-.4-.2-.4-.5v-5.6h-1.6v5.6c-.1.4 0 .8.2 1.2.4.3.8.5 1.2.4z"/><path d="m368.4 21.1-4.4-15.7h-6.3l7.6 21.2h5.8l7.8-21.2h-6z"/><path d="m313.5 9.3c-.5-.6-1.2-1.1-1.9-1.4-.9-.3-1.8-.5-2.8-.5-.8 0-1.6.1-2.3.4l-1.8.9c-.5.3-.9.7-1.3 1.2l-.7 1.1v-10.2h-1.5v23h1.5v-8.3c0-.8.2-1.6.4-2.3.2-.8.6-1.5 1.1-2.1.5-.7 1.1-1.2 1.8-1.6.8-.4 1.7-.6 2.6-.6.7 0 1.4.1 2 .3s1.1.5 1.5 1c.4.6.8 1.2.9 1.9.2 1 .3 1.9.3 2.9v8.8h1.5v-9.4c0-1-.1-1.9-.3-2.9-.1-.8-.5-1.5-1-2.2z"/><path d="m326.1 7.5c-1.2 0-2.4.2-3.5.6-1 .4-2 1-2.8 1.7-.8.8-1.5 1.7-1.9 2.7-.5 1.1-.7 2.3-.7 3.5 0 1.1.1 2.2.4 3.2.3.9.7 1.8 1.3 2.6.6.7 1.3 1.3 2.2 1.7 1 .4 2.1.6 3.2.6.9 0 1.8-.2 2.6-.5.6-.3 1.2-.6 1.8-1s1-.9 1.4-1.5v2.4c0 .8-.1 1.6-.3 2.4-.3 1.5-1.4 2.7-2.8 3.2-2 .6-4.1.6-6-.1l-1.7-1-.9 1.2.8.6 1.2.6 1.6.5 2.1.2c1.2 0 2.4-.1 3.5-.5.9-.3 1.7-.8 2.3-1.5s1.1-1.5 1.3-2.4c.3-1 .4-2.1.4-3.2v-14.9l-2.3-.8c-1-.2-2.1-.3-3.2-.3zm4.2 10.1c0 .5-.1 1-.3 1.5-.2.6-.6 1.2-1 1.7-.5.6-1.1 1.1-1.8 1.4-.8.4-1.7.6-2.6.6s-1.8-.2-2.6-.6c-.7-.4-1.3-.9-1.7-1.5-.5-.6-.8-1.3-1-2.1s-.3-1.7-.3-2.5c0-1 .2-2.1.6-3 .3-.8.8-1.6 1.5-2.2s1.4-1.1 2.3-1.4 1.8-.5 2.7-.5h1.8l1.3.3 1.1.3z"/><path d="m415.4 5.6c-1.3.2-2.6.7-3.6 1.6-1.2 1-2.1 2.2-2.7 3.6v-5.2h-1.8v20.8h1.9v-13c.5-1.7 1.4-3.2 2.8-4.3 1.3-1.1 3-1.7 4.7-1.7v-1.8z"/><path d="m430.8 16.9c-.7-.5-1.6-.8-2.4-1.1l-3.3-.9-2.4-.7-1.6-.7c-.4-.2-.7-.6-.9-1-.2-.5-.3-1-.3-1.5 0-.7.1-1.3.4-1.9.3-.5.6-1 1.1-1.3.5-.4 1.1-.6 1.7-.8l2.1-.2c1.2 0 2.3.2 3.4.6 1 .4 1.9 1 2.6 1.8l1-1.1c-.7-.9-1.7-1.6-2.8-2.1-1.3-.6-2.7-.8-4.1-.8-.9 0-1.9.1-2.8.4-.8.2-1.6.6-2.3 1.1s-1.2 1.1-1.6 1.9-.6 1.8-.6 2.7c0 .7.1 1.4.4 2s.7 1 1.2 1.4c.6.4 1.3.8 2 1l2.9.8 2.7.8 2 .8c.5.3.9.6 1.2 1.1s.4 1 .4 1.6c.1 1.3-.6 2.5-1.6 3.2-1.2.8-2.7 1.2-4.2 1.1-1.3 0-2.6-.2-3.8-.7s-2.3-1.3-3.3-2.2l-1 1.4c1 1.1 2.3 1.9 3.7 2.4s2.9.8 4.4.8c2 .1 3.9-.5 5.5-1.7 1.4-1.1 2.2-2.7 2.1-4.5 0-.8-.1-1.5-.5-2.2-.3-.6-.7-1.1-1.3-1.5z"/><path d="m264.4 22.3c-.5-.3-1.2-.2-1.5.3l-1 1.1c-1.3 1.4-2.6 2.9-3.7 4.5v.5c0 .2.1.4.3.6.8 1 4.5 2.3 5.8 2.1.3-.1.6-.3.8-.6.2-.2.2-.3.2-5.2 0-.7-.1-1.4-.2-2.1.1-.5-.2-1-.7-1.2z"/><path d="m261.9 20.3c.5-.1.9-.6.8-1.1 0-.6-.3-1.1-.8-1.3l-1.5-.6c-5-1.9-5.2-2.1-5.5-2.1-.4 0-.8.2-1 .5-.5.8-.6 3.4-.5 5 0 .5.1.9.3 1.3s.6.6 1 .6c.3 0 .5 0 5-1.6z"/><path d="m269.2 18.2 1.6-.5c5.2-1.3 5.5-1.3 5.7-1.5.4-.2.6-.6.5-1-.2-1.3-2.4-4.7-3.6-5.2-.4-.2-.7-.2-1.1 0-.3.2-.5.3-3.2 4.2l-1.3 1.8c-.4.4-.4 1.1 0 1.5.3.5.9.8 1.4.7z"/><path d="m263.9.7c-1.5-.3-6.5 1.1-7.4 2.1-.3.3-.4.7-.3 1.1.2.3 2.3 3.9 3.9 6.3l2.6 4c1 1.5 1.6 1.1 1.9 1.1s1-.3 1-2.1-.9-11.2-.9-11.6c0-.5-.3-.8-.8-.9z"/><path d="m276.8 23.2c-.3-.2-.5-.3-5-1.8l-2.1-.6c-.6-.2-1.2 0-1.5.5-.5.4-.6 1.1-.2 1.6l.8 1.3c2.6 4.4 2.9 4.7 3.1 4.9.3.3.7.4 1.1.2 1.1-.5 3.7-3.7 4-5 .3-.4.2-.8-.2-1.1z"/><path d="m11.4 15.9v.2z"/><path d="m523.5 3c-7.2 0-13 5.8-13 13s5.8 13 13 13 13-5.8 13-13-5.8-13-13-13zm-11.7 13c0-1.7.4-3.3 1-4.8l5.6 15.3c-3.9-1.9-6.6-5.9-6.6-10.5zm11.7 11.7c-1.1 0-2.3-.2-3.3-.5l3.5-10.2 3.6 9.8c0 .1.1.1.1.2-1.2.5-2.5.7-3.9.7zm1.6-17.2c.7 0 1.3-.1 1.3-.1.6-.1.6-1-.1-1 0 0-1.9.1-3.1.1-1.1 0-3.1-.1-3.1-.1-.6 0-.7.9-.1 1 0 0 .6.1 1.2.1l1.8 5-2.6 7.7-4.3-12.7c.7 0 1.3-.1 1.3-.1.6-.1.6-1-.1-1 0 0-1.9.1-3.1.1-.2 0-.5 0-.8 0 2.1-3.2 5.7-5.3 9.8-5.3 3 0 5.8 1.2 7.9 3.1-.1 0-.1 0-.2 0-1.1 0-2 1-2 2.1 0 1 .6 1.8 1.1 2.7.4.8 1 1.8 1 3.2 0 1-.4 2.2-.9 3.8l-1.2 3.9zm8.7-.1c.9 1.7 1.4 3.6 1.4 5.6 0 4.3-2.3 8.1-5.8 10.1l3.6-10.3c.7-1.7.9-3 .9-4.2-.1-.4-.1-.8-.1-1.2z"/><path d="m575.5 27.9c-.1 0-.1 0-.2 0h-.1c-1.5 0-2.4-.7-3.4-1.3-.6-.5-1.2-.9-2-1-.3-.1-.7-.1-1-.1-.6 0-1.1.1-1.4.2-.2 0-.4.1-.5.1s-.3 0-.4-.3c-.1-.2-.1-.4-.1-.6-.1-.5-.2-.8-.4-.8-2.4-.4-3-.9-3.2-1.2 0-.1 0-.1 0-.2s.1-.3.2-.3c3.6-.6 5.3-4.3 5.3-4.5.2-.5.3-.8.1-1.2-.2-.6-1.1-.8-1.6-1-.1 0-.3-.1-.4-.1-1.1-.4-1.2-.9-1.1-1.1.1-.4.6-.6 1-.6.1 0 .2 0 .3.1.5.2.9.3 1.3.3.5 0 .7-.2.8-.2 0-.2 0-.5 0-.8-.1-1.7-.2-3.9.3-5.1 1.6-3.7 5.1-3.9 6.1-3.9h.4.1c1 0 4.5.3 6.1 3.9.5 1.2.4 3.4.3 5.1v.1.7s.2.2.7.2c.4 0 .8-.1 1.2-.3.1-.1.3-.1.4-.1.2 0 .3 0 .4.1.4.1.6.4.6.7s-.2.6-1.1 1c-.1 0-.2.1-.4.1-.5.2-1.4.4-1.6 1-.1.3-.1.7.1 1.2.1.2 1.7 3.9 5.3 4.5.1 0 .2.1.2.3v.2c-.1.4-.8.8-3.2 1.2-.2 0-.3.3-.4.8 0 .2-.1.4-.1.6-.1.2-.2.3-.3.3s-.3 0-.5-.1c-.4-.1-.8-.2-1.4-.2-.3 0-.7 0-1 .1-.7.1-1.3.5-2 1-1 .5-1.9 1.2-3.4 1.2z"/><path d="m471.9 5.3c3.5 0 3.9 0 5.2.1s1.9.3 2.4.4c.6.2 1 .5 1.5 1s.7.9 1 1.5c.2.5.4 1.1.4 2.4.1 1.4.1 1.8.1 5.2s0 3.9-.1 5.2-.3 1.9-.4 2.4c-.2.6-.5 1-1 1.5s-.9.7-1.5 1c-.5.2-1.1.4-2.4.4-1.4.1-1.8.1-5.2.1-3.5 0-3.9 0-5.2-.1s-1.9-.3-2.4-.4c-.6-.2-1-.5-1.5-1s-.7-.9-1-1.5c-.2-.5-.4-1.1-.4-2.4-.1-1.4-.1-1.8-.1-5.2s0-3.9.1-5.2.3-1.9.4-2.4c.2-.6.5-1 1-1.5s.9-.7 1.5-1c.5-.2 1.1-.4 2.4-.4 1.3-.1 1.7-.1 5.2-.1m0-2.3c-3.5 0-4 0-5.3.1-1.4.1-2.3.3-3.1.6-.9.3-1.6.8-2.3 1.5s-1.2 1.4-1.5 2.3c-.3.8-.5 1.8-.6 3.1-.1 1.4-.1 1.8-.1 5.3s0 4 .1 5.3c.1 1.4.3 2.3.6 3.1.3.9.8 1.6 1.5 2.3s1.4 1.2 2.3 1.5c.8.3 1.8.5 3.1.6 1.4.1 1.8.1 5.3.1s4 0 5.3-.1c1.4-.1 2.3-.3 3.1-.6.9-.3 1.6-.8 2.3-1.5s1.2-1.4 1.5-2.3c.3-.8.5-1.8.6-3.1.1-1.4.1-1.8.1-5.3s0-4-.1-5.3c-.1-1.4-.3-2.3-.6-3.1-.3-.9-.8-1.6-1.5-2.3s-1.4-1.2-2.3-1.5c-.8-.3-1.8-.5-3.1-.6-1.4-.1-1.8-.1-5.3-.1z"/><path d="m471.9 9.3c-3.7 0-6.7 3-6.7 6.6s3 6.6 6.7 6.6 6.6-3 6.6-6.6-3-6.6-6.6-6.6zm0 10.9c-2.4 0-4.3-1.9-4.3-4.3s1.9-4.3 4.3-4.3 4.3 1.9 4.3 4.3-2 4.3-4.3 4.3z"/><circle cx="478.8" cy="9" r="1.6"/><path d="m628.5 27.9c-2 0-3.9-1-5.2-2.9-2.8-4.2-5.8-8.2-8.8-12.3-.2-.3-.5-.6-.6-1-.3-.6-.3-1.3.2-1.8.4-.5 1-.6 1.6-.4 1.2.4 2.3.9 3.4 1.4.6.3 1.4.6 1.4.6s.5-.8.8-1.3c.5-.9 1-1.7 1.5-2.5 3-4.7 9.6-4.6 12.3.4.2.3.3.7.6 1 .2.2.5.3.9.4.7.2 1.1.7 1.1 1.4s-.4 1.1-1 1.3c-.4.2-.6.2-.8.5-.8.9-.9 2.4-1.6 3.2-.1.1-.1.2-.1.3.1.3.5.7.7 1 1.4 2.4 1.7 4.8.2 7.3-1.5 2.3-3.5 3.4-6.6 3.4zm4.1-6.5c0-1.8-.8-2.8-2.4-3.4-2-.7-4.1-1.4-6.2-2.1-.3-.1-.7-.2-1-.2-1.1 0-1.7.8-1 1.6 1.7 2.2 3.3 4.5 5.4 6.4 1 .9 2.3.9 3.5.3 1.2-.5 1.7-1.5 1.7-2.6zm-3.8-7.8c1.6 0 2.9-1.2 2.9-2.7 0-1.4-1.3-2.8-2.7-2.8-1.6 0-2.8 1.2-2.8 2.8s1 2.7 2.6 2.7z"/><path d="m677.2 3c-7.2 0-13 5.8-13 13 0 5.5 3.4 10.2 8.3 12.1-.1-1-.2-2.6 0-3.7.2-1 1.5-6.5 1.5-6.5s-.4-.8-.4-1.9c0-1.8 1-3.2 2.4-3.2 1.1 0 1.6.8 1.6 1.8 0 1.1-.7 2.8-1.1 4.3-.3 1.3.6 2.3 1.9 2.3 2.3 0 4.1-2.4 4.1-6 0-3.1-2.2-5.3-5.4-5.3-3.7 0-5.9 2.8-5.9 5.6 0 1.1.4 2.3 1 3 .1.1.1.2.1.4-.1.4-.3 1.3-.4 1.5s-.2.3-.4.2c-1.6-.8-2.6-3.1-2.6-5 0-4.1 3-7.9 8.6-7.9 4.5 0 8 3.2 8 7.5 0 4.5-2.8 8.1-6.7 8.1-1.3 0-2.6-.7-3-1.5 0 0-.7 2.5-.8 3.1-.3 1.1-1.1 2.5-1.6 3.4 1.2.4 2.5.6 3.8.6 7.2 0 13-5.8 13-13 0-7.1-5.8-12.9-13-12.9z"/></g></svg>